<?xml version="1.0" encoding="UTF-8"?>
<svg version="1.1" xmlns="http://www.w3.org/2000/svg" width="1280" height="683">
<path d="M0 0 C422.4 0 844.8 0 1280 0 C1280 225.39 1280 450.78 1280 683 C857.6 683 435.2 683 0 683 C0 457.61 0 232.22 0 0 Z " fill="#FCFCFC" transform="translate(0,0)"/>
<path d="M0 0 C15.76692466 -0.09354141 31.52511935 -0.11651606 47.28765869 0.30249023 C69.16657246 0.87746475 91.04519801 1.23389495 112.9296875 1.5 C113.79926094 1.51067843 114.66883439 1.52135686 115.56475854 1.53235888 C164.58345252 2.13208249 213.60450581 2.31978424 262.62615174 2.51740927 C275.14520037 2.56800947 287.66423161 2.62244816 300.18326318 2.67708123 C325.78882581 2.78874444 351.39440521 2.89599154 377 3 C377 6.96 377 10.92 377 15 C357.53 15 338.06 15 318 15 C321.2484375 22.1465625 321.2484375 22.1465625 324.5625 29.4375 C328.77224028 38.72721235 332.93164859 48.01534699 336.7331543 57.48120117 C338.47848743 61.80500555 340.37467931 66.03959768 342.375 70.25 C345.49609342 76.82425514 348.38913935 83.48117004 351.23730469 90.17773438 C353.54387711 95.60020287 355.86845438 101.01430311 358.21875 106.41796875 C358.63656487 107.37873825 358.63656487 107.37873825 359.06282043 108.35891724 C359.63142806 109.66628938 360.20005713 110.97365221 360.76870728 112.28100586 C365.06768567 122.16625074 369.33415913 132.05777364 373.33984375 142.06640625 C374.7298217 145.44722375 376.2611492 148.7552059 377.80078125 152.0703125 C381.06594634 159.10192941 384.17556748 166.19586711 387.25 173.3125 C387.52868927 173.95597382 387.80737854 174.59944763 388.09451294 175.26242065 C392.34814926 185.08570124 396.52215369 194.93963697 400.57714844 204.84692383 C403.04371199 210.83971537 405.70122429 216.72142708 408.43579102 222.59643555 C411.13947632 228.47938808 413.6889891 234.42893991 416.25 240.375 C417.11409801 242.37632761 417.97872818 244.37742483 418.84335327 246.37852478 C419.41957906 247.71231246 419.99561001 249.04618432 420.57144165 250.38014221 C422.61011566 255.10219437 424.66092651 259.81883263 426.71728516 264.53320312 C432.14415071 276.97539678 437.48919874 289.45233301 442.82373047 301.93432617 C445.83547279 308.9776019 448.86100776 316.01219316 452 323 C455.78489756 314.89859508 459.20492373 306.68629585 462.5 298.375 C463.01694151 297.07595008 463.53403504 295.77696064 464.05126953 294.47802734 C465.42147495 291.03393821 466.78753114 287.58822 468.15197754 284.1418457 C469.00930099 281.97650853 469.8674032 279.81148111 470.72558594 277.64648438 C472.16632923 274.01056651 473.60471518 270.37372378 475.04125977 266.73614502 C475.58601752 265.35674342 476.13108863 263.97746552 476.67651367 262.59832764 C479.2799662 256.01151151 481.85482407 249.41892723 484.30799866 242.77445984 C486.58693041 236.60557463 489.02949651 230.57584598 491.81591797 224.61572266 C493.95338218 219.89390997 495.73633507 215.03617821 497.5625 210.1875 C501.85431576 198.90490855 506.29212418 187.68815774 510.80102539 176.4909668 C513.5464774 169.66581134 516.24006152 162.82516117 518.85595703 155.94921875 C520.39451745 151.9829768 522.03371434 148.06219067 523.69140625 144.14453125 C526.99752849 136.19996884 530.11448415 128.17841254 533.26098633 120.16967773 C539.83786335 103.43021305 546.49157748 86.72245183 553.18496704 70.02928162 C555.19589544 65.01220841 557.20057645 59.99267244 559.20188904 54.97175598 C560.65459533 51.3271913 562.10858271 47.6831382 563.56259155 44.03909302 C564.26275298 42.2833698 564.96233167 40.52741407 565.6612854 38.77120972 C566.63976116 36.31297085 567.62044357 33.85562241 568.6015625 31.3984375 C568.88643021 30.68110947 569.17129791 29.96378143 569.46479797 29.22471619 C571.51766146 24.09197566 573.72543518 19.03818359 576 14 C574.78875458 14.00333092 574.78875458 14.00333092 573.55303955 14.00672913 C565.84801066 14.02697847 558.14299512 14.04209745 550.43794632 14.05181217 C546.47912691 14.05697487 542.52032994 14.06394815 538.56152344 14.07543945 C521.68388382 14.12318962 504.84814535 14.16352421 488 13 C488 9.04 488 5.08 488 1 C532.49900974 0.88255885 576.9931996 0.95536826 621.49039841 1.40571976 C624.69655944 1.43759005 627.90273356 1.46754266 631.10891724 1.49703979 C636.15766854 1.54392558 641.20633566 1.59615553 646.25498581 1.65287781 C648.12271848 1.67322702 649.99046922 1.69198524 651.85823441 1.70909119 C654.40516214 1.73291454 656.95194007 1.76291044 659.4987793 1.79467773 C660.62818735 1.80331046 660.62818735 1.80331046 661.78041172 1.81211758 C666.88570488 1.88570488 666.88570488 1.88570488 668 3 C668 6.96 668 10.92 668 15 C641.93 15.33 615.86 15.66 589 16 C586.6075 21.98125 584.215 27.9625 581.75 34.125 C574.20833333 52.97916667 566.66666667 71.83333333 559.125 90.6875 C558.79859528 91.50351685 558.47219055 92.31953369 558.13589478 93.16027832 C557.45896787 94.85258536 556.78202683 96.54488674 556.10507202 98.23718262 C554.38433394 102.53884926 552.6638356 106.84061149 550.94384766 111.14257812 C547.80901847 118.98260927 544.67163479 126.82157625 541.5234375 134.65625 C537.12646139 145.60402499 532.75179921 156.54922201 528.6640625 167.6171875 C524.57674268 178.51140571 520.11590341 189.27093805 515.77667236 200.06707764 C508.25394315 218.78906675 500.80126376 237.53775936 493.39263916 256.30514526 C488.8550322 267.79930314 484.29391759 279.28325547 479.6875 290.75 C475.36958602 301.50357786 471.15557649 312.29403947 466.98614502 323.10574341 C461.56412209 337.1647356 456.05103033 351.18134363 450.21484375 365.07421875 C448.01890986 370.36281838 445.91029938 375.68664061 443.79418945 381.00756836 C443.22681496 382.43097544 442.6574157 383.85357612 442.08666992 385.27563477 C440.32764996 389.6590166 438.58585503 394.04831961 436.87109375 398.44921875 C432.40591687 409.90259791 427.87987543 421.32846238 423.265625 432.72265625 C422.8493837 433.75053757 422.4331424 434.77841888 422.00428772 435.83744812 C419.91534121 440.99300029 417.8227508 446.14704816 415.72631836 451.29956055 C411.78350163 461.00523778 407.92133712 470.72608513 404.28491211 480.55078125 C402.4946992 485.35642974 400.60436919 490.1187447 398.6875 494.875 C398.34138672 495.73996094 397.99527344 496.60492187 397.63867188 497.49609375 C395.14174107 503.71651786 395.14174107 503.71651786 394 506 C393.34 506 392.68 506 392 506 C391.57332031 504.96488281 391.14664063 503.92976563 390.70703125 502.86328125 C384.97238702 489.05165114 378.85172253 475.41802686 372.70556641 461.78613281 C369.41697435 454.48975209 366.14994375 447.18368201 362.87841797 439.87963867 C360.16410233 433.82158313 357.44481543 427.76586206 354.71484375 421.71484375 C348.65278309 408.26191586 342.70009549 394.77505698 336.95678711 381.18334961 C334.80326939 376.10583087 332.60509179 371.10439503 330.08813477 366.19750977 C327.47484193 360.91991299 325.14684369 355.50347453 322.75 350.125 C322.16728402 348.82066173 321.58443789 347.5163816 321.00146484 346.2121582 C319.33202501 342.4757887 317.66584227 338.7379748 316 335 C315.58073242 334.06043457 315.16146484 333.12086914 314.72949219 332.15283203 C313.69364805 329.8315044 312.65886426 327.50971001 311.625 325.1875 C311.21652832 324.27025146 311.21652832 324.27025146 310.79980469 323.33447266 C309.0587098 319.41339478 307.33674652 315.48414112 305.61965942 311.55249023 C302.01894175 303.30891996 298.38032754 295.08291421 294.72006226 286.8656311 C288.18493864 272.19197905 281.67886945 257.50555431 275.1875 242.8125 C274.78249268 241.89596649 274.37748535 240.97943298 273.96020508 240.03512573 C270.16360869 231.44276345 266.36816374 222.84994275 262.59765625 214.24609375 C258.47783173 204.84676518 254.3263915 195.47991024 249.9453125 186.19921875 C243.47206533 172.34363997 237.36459802 158.30060183 231.39379883 144.22192383 C230.04902989 141.11333814 228.64759121 138.03948809 227.21875 134.96875 C224.05082149 128.12769226 220.95372843 121.25658441 217.875 114.375 C217.31317295 113.12059566 216.75132352 111.86620133 216.18945312 110.61181641 C211.78844184 100.78183065 207.41038231 90.94169063 203.04638672 81.09521484 C200.92695157 76.31662187 198.79746989 71.54380097 196.625 66.7890625 C192.83779771 58.48025178 189.18749987 50.11024661 185.51123047 41.75195312 C184.53927034 39.54273357 183.56652277 37.33386183 182.59375 35.125 C182.30713501 34.47257324 182.02052002 33.82014648 181.72521973 33.14794922 C179.19762784 27.40893433 176.59561029 21.71034264 174 16 C149.91 16 125.82 16 101 16 C97.37 25.24 93.74 34.48 90 44 C87.96484142 49.12784759 85.92742871 54.25413654 83.875 59.375 C83.50530594 60.29881973 83.50530594 60.29881973 83.12814331 61.24130249 C79.97740829 69.11407643 76.79104878 76.97131369 73.5625 84.8125 C66.36774066 102.30903389 59.49423646 119.93977188 52.67578125 137.5859375 C52.40690598 138.28169388 52.1380307 138.97745026 51.86100769 139.69429016 C50.58620407 142.99482903 49.31388125 146.29629371 48.0456543 149.59936523 C45.54442006 156.09395992 42.96553135 162.54403651 40.26855469 168.9597168 C37.90896601 174.61482801 35.64701162 180.30926985 33.375 186 C33.11876862 186.64118774 32.86253723 187.28237549 32.59854126 187.94299316 C25.74607304 205.09302758 18.98781616 222.28023537 12.3125 239.5 C8.94208744 248.1927475 5.47693587 256.84676378 2.00292969 265.49853516 C1.03272475 267.91837931 0.06636444 270.33971595 -0.8984375 272.76171875 C-3.80412327 280.05127778 -6.7217415 287.33472931 -9.703125 294.59375 C-14.22611163 305.61275484 -18.68093129 316.6245942 -22.71459961 327.83300781 C-24.51300522 332.79465597 -26.56016051 337.56450552 -28.8203125 342.3359375 C-30.72891727 346.64609793 -32.20855111 351.10285536 -33.76171875 355.55078125 C-35.22157347 359.61719046 -36.86859731 363.5780597 -38.5546875 367.5546875 C-42.98425819 378.11382627 -47.20692534 388.7636797 -51.1875 399.5 C-53.62561129 406.07465489 -56.26778008 412.54274769 -59 419 C-62.44887842 427.22052789 -65.84271375 435.45131388 -68.9375 443.8125 C-73.32776036 455.66649526 -78.10285003 467.36674439 -82.88671875 479.06640625 C-83.38147705 480.27707764 -83.87623535 481.48774902 -84.38598633 482.73510742 C-85.36168614 485.12020473 -86.33931779 487.50451288 -87.3190918 489.88793945 C-87.76808838 490.98452881 -88.21708496 492.08111816 -88.6796875 493.2109375 C-89.07913574 494.18337402 -89.47858398 495.15581055 -89.89013672 496.15771484 C-91.02985096 499.07644629 -92.0341428 502.01968791 -93 505 C-96 504 -96 504 -97.31518555 501.78540039 C-97.7512915 500.81594482 -98.18739746 499.84648926 -98.63671875 498.84765625 C-99.1270459 497.77104736 -99.61737305 496.69443848 -100.12255859 495.58520508 C-100.89720459 493.84146606 -100.89720459 493.84146606 -101.6875 492.0625 C-102.22713379 490.86971436 -102.76676758 489.67692871 -103.32275391 488.44799805 C-104.89290355 484.97016584 -106.44892928 481.48637563 -108 478 C-108.69137565 476.45311133 -109.38277695 474.90623411 -110.07421875 473.359375 C-111.29879736 470.61192298 -112.51570822 467.86117945 -113.73046875 465.109375 C-116.84374812 458.0762672 -120.02004717 451.07132522 -123.1875 444.0625 C-123.48791199 443.39755524 -123.78832397 442.73261047 -124.09783936 442.04751587 C-126.96347098 435.7051022 -129.83264804 429.36438398 -132.71875 423.03125 C-134.62115294 418.84890041 -136.4806454 414.65122013 -138.3125 410.4375 C-140.83223422 404.65681031 -143.3740789 398.88645131 -145.9375 393.125 C-146.27330078 392.37025391 -146.60910156 391.61550781 -146.95507812 390.83789062 C-148.28812747 387.8429901 -149.62200603 384.8484594 -150.95605469 381.85400391 C-155.61865419 371.38610565 -160.24270414 360.90182018 -164.84936523 350.40917969 C-167.82070845 343.65147856 -170.83153423 336.91299289 -173.875 330.1875 C-176.13465707 325.19369677 -178.36546384 320.20040565 -180.4375 315.125 C-183.94889608 306.54838449 -187.89427153 298.15677159 -191.7512207 289.73168945 C-192.9987196 287.00280087 -194.24031759 284.2712972 -195.48046875 281.5390625 C-197.6217324 276.8250242 -199.78059586 272.11926432 -201.94384766 267.4152832 C-208.66604261 252.7897727 -215.25525736 238.12178903 -221.5625 223.3125 C-224.07618714 217.41169899 -226.63541788 211.54954496 -229.375 205.75 C-235.68411176 192.39378405 -241.49760202 178.80650867 -247.3515625 165.24609375 C-247.63472321 164.59066086 -247.91788391 163.93522797 -248.20962524 163.25993347 C-249.58316663 160.08014037 -250.95422605 156.89935074 -252.32080078 153.71655273 C-255.22951646 146.97093553 -258.23552435 140.28391993 -261.35951233 133.63626099 C-264.53797171 126.87190217 -267.61736809 120.06406307 -270.6875 113.25 C-270.98813354 112.58337341 -271.28876709 111.91674683 -271.59851074 111.22991943 C-279.33300157 94.07734595 -286.98326099 76.88829619 -294.5390625 59.65625 C-294.93706055 58.74873993 -295.33505859 57.84122986 -295.74511719 56.90621948 C-297.72639274 52.38778061 -299.705965 47.86860791 -301.68261719 43.34814453 C-302.42119802 41.66177249 -303.15980375 39.97541136 -303.8984375 38.2890625 C-304.2230899 37.54507202 -304.54774231 36.80108154 -304.88223267 36.0345459 C-307.83010286 29.3097949 -310.92089788 22.67138792 -314 16 C-334.46 15.67 -354.92 15.34 -376 15 C-376 11.04 -376 7.08 -376 3 C-288.22 3 -200.44 3 -110 3 C-110 6.96 -110 10.92 -110 15 C-129.47 15.33 -148.94 15.66 -169 16 C-165.67069775 24.32325564 -162.44957558 32.34499161 -158.66552734 40.40869141 C-155.09252009 48.11302103 -151.72235059 55.90993677 -148.3125 63.6875 C-147.91238708 64.59915924 -147.51227417 65.51081848 -147.10003662 66.45010376 C-142.12085417 77.79901429 -137.19745973 89.16624643 -132.40576172 100.59570312 C-125.67064221 116.61026442 -118.67228226 132.51347203 -111.72964478 148.43882751 C-109.62854204 153.25874094 -107.53048601 158.07994057 -105.43847656 162.90380859 C-100.63671855 173.97347399 -95.78845431 185.02002243 -90.86422729 196.03573608 C-84.40945644 210.4839486 -78.08792831 224.97078136 -72.11328125 239.625 C-71.64353882 240.77415894 -71.64353882 240.77415894 -71.16430664 241.9465332 C-70.58322992 243.37075302 -70.00523498 244.79623709 -69.43139648 246.22338867 C-68.12578991 249.43399576 -66.74334114 252.55820568 -65.15698242 255.640625 C-62.85870257 260.20796566 -60.84303627 264.87604708 -58.84765625 269.58203125 C-58.27464027 270.9242701 -58.27464027 270.9242701 -57.69004822 272.29362488 C-56.47853678 275.13226381 -55.27027988 277.97227159 -54.0625 280.8125 C-52.47170002 284.54888146 -50.87930333 288.28457662 -49.28515625 292.01953125 C-48.71593193 293.35362785 -48.71593193 293.35362785 -48.13520813 294.7146759 C-45.80776393 300.15484005 -43.41831666 305.56063486 -40.94165039 310.93481445 C-39.13639683 314.89401587 -37.58494938 318.94957381 -36 323 C-32.7950211 315.94792384 -29.84424772 308.80434815 -26.9375 301.625 C-25.96360038 299.22653866 -24.98964025 296.82810189 -24.015625 294.4296875 C-23.513671 293.19238317 -23.01171788 291.95507848 -22.50976562 290.71777344 C-20.54775325 285.88369678 -18.57572546 281.05371097 -16.60449219 276.22338867 C-8.15819835 255.5500405 -8.15819835 255.5500405 -0.1784668 234.69433594 C1.23671085 230.90383062 2.76877333 227.21854099 4.5 223.5625 C6.49858505 219.29508099 8.10633534 214.9554552 9.625 210.5 C13.44473979 199.36268307 18.03124549 188.53783454 22.50585938 177.65185547 C24.99339045 171.57203688 27.43672148 165.47470796 29.875 159.375 C30.12344666 158.75362152 30.37189331 158.13224304 30.62786865 157.49203491 C34.80641481 147.03658937 38.93494791 136.56173321 43.05267334 126.08221436 C47.99140652 113.5164072 52.99891749 100.97872984 58.02362061 88.44708252 C61.55833845 79.6304712 65.08519031 70.81126672 68.5546875 61.96875 C68.97998749 60.88533325 68.97998749 60.88533325 69.41387939 59.7800293 C70.71729978 56.45770717 72.01745191 53.13419278 73.3125 49.80859375 C78.01597845 37.79287693 83.00991442 25.89902095 88 14 C86.74450851 14.00333092 86.74450851 14.00333092 85.46365356 14.00672913 C77.49311244 14.02694419 69.52258019 14.04208067 61.55201912 14.05181217 C57.45638033 14.05698373 53.3607631 14.06397434 49.26513672 14.07543945 C45.29693268 14.08647564 41.32874908 14.09231967 37.36053085 14.09487724 C35.86263584 14.09669483 34.36474168 14.10024157 32.86685562 14.10573006 C21.87783037 14.14431538 10.96605072 13.70749523 0 13 C0 8.71 0 4.42 0 0 Z " fill="#020201" transform="translate(476,96)"/>
<path d="M0 0 C2 3 2 3 2 6 C1.34 6 0.68 6 0 6 C-0.185625 7.9490625 -0.185625 7.9490625 -0.375 9.9375 C-0.5859375 12.15234375 -0.5859375 12.15234375 -1 14 C-1.99 14.495 -1.99 14.495 -3 15 C-3.2165625 15.99 -3.2165625 15.99 -3.4375 17 C-3.623125 17.66 -3.80875 18.32 -4 19 C-4.99 19.33 -5.98 19.66 -7 20 C-6.29937517 15.43263559 -4.68729793 11.4300495 -2.9375 7.1875 C-2.51500977 6.14819336 -2.51500977 6.14819336 -2.08398438 5.08789062 C-1.39325027 3.39032376 -0.69716272 1.69493688 0 0 Z " fill="#E2E2E0" transform="translate(1054,137)"/>
<path d="M0 0 C2 3 2 3 2 6 C1.34 6 0.68 6 0 6 C0 6.66 0 7.32 0 8 C0.66 8.33 1.32 8.66 2 9 C1.360625 9.61875 0.72125 10.2375 0.0625 10.875 C-2.03883584 12.82597612 -2.03883584 12.82597612 -3 15 C-3.66 15 -4.32 15 -5 15 C-3.33333333 10 -1.66666667 5 0 0 Z " fill="#E8E8E4" transform="translate(452,424)"/>
<path d="M0 0 C0.66 0.33 1.32 0.66 2 1 C2.625 3.5625 2.625 3.5625 3 6 C2.34 6 1.68 6 1 6 C1 7.32 1 8.64 1 10 C-0.65 10.66 -2.3 11.32 -4 12 C-2.66666667 8 -1.33333333 4 0 0 Z " fill="#E2E2DF" transform="translate(1043,164)"/>
<path d="M0 0 C2.1385485 2.1385485 2.42655063 3.13275314 3 6 C2.01 6.33 1.02 6.66 0 7 C-1.21869929 9.50447516 -1.21869929 9.50447516 -2 12 C-2.66 12 -3.32 12 -4 12 C-3.52309796 10.37433394 -3.04340334 8.74948689 -2.5625 7.125 C-2.29566406 6.22007812 -2.02882813 5.31515625 -1.75390625 4.3828125 C-1 2 -1 2 0 0 Z " fill="#E5E6E3" transform="translate(405,543)"/>
<path d="M0 0 C1.23602988 2.03581391 2.04141677 3.39945683 1.875 5.8125 C0.56941726 9.07645686 -1.20009961 11.98081225 -3 15 C-3.66 15 -4.32 15 -5 15 C-1.92482916 4.44191344 -1.92482916 4.44191344 0 0 Z " fill="#DFDFDC" transform="translate(1028,202)"/>
<path d="M0 0 C0.66 0 1.32 0 2 0 C2.45375 1.0725 2.9075 2.145 3.375 3.25 C4.23702205 5.28453544 5.10824666 7.19370454 6.1875 9.125 C7.21637442 11.49932558 7.14217023 13.44093582 7 16 C4.53859635 13.53859635 3.69673014 11.21543707 2.375 8 C1.92898438 6.9275 1.48296875 5.855 1.0234375 4.75 C0 2 0 2 0 0 Z " fill="#E6E7E4" transform="translate(833,200)"/>
<path d="M0 0 C1.98 0 3.96 0 6 0 C5.67 0.66 5.34 1.32 5 2 C4.34 2 3.68 2 3 2 C3.33 2.9075 3.66 3.815 4 4.75 C5 8 5 8 5 12 C1.94063363 8.24532309 0 4.91886939 0 0 Z " fill="#ECECEA" transform="translate(795,112)"/>
<path d="M0 0 C1.79068573 2.6860286 2.66055791 4.6626589 3.625 7.6875 C3.88539063 8.49574219 4.14578125 9.30398438 4.4140625 10.13671875 C4.60742188 10.75160156 4.80078125 11.36648438 5 12 C2 11 2 11 0 9 C-0.83679382 5.42460821 -1.17348213 3.52044638 0 0 Z " fill="#DDDEDB" transform="translate(809,468)"/>
<path d="M0 0 C2.22825644 2.22825644 2.69239369 3.65761628 3.625 6.625 C3.88539063 7.44226563 4.14578125 8.25953125 4.4140625 9.1015625 C4.60742188 9.72804688 4.80078125 10.35453125 5 11 C4.01 11.33 3.02 11.66 2 12 C-0.29632557 7.56043724 -1.20238143 4.94312365 0 0 Z " fill="#E5E5E3" transform="translate(228,260)"/>
<path d="M0 0 C-0.99 2.64 -1.98 5.28 -3 8 C-3.33 7.34 -3.66 6.68 -4 6 C-4.66 6 -5.32 6 -6 6 C-6 4.02 -6 2.04 -6 0 C-2.25 -1.125 -2.25 -1.125 0 0 Z " fill="#EAEBE7" transform="translate(1013,209)"/>
<path d="M0 0 C1.5625 1.75 1.5625 1.75 3 4 C2.6875 6.25 2.6875 6.25 2 8 C0.35 8.33 -1.3 8.66 -3 9 C-2.01 6.03 -1.02 3.06 0 0 Z " fill="#E8E8E5" transform="translate(485,341)"/>
<path d="M0 0 C1 2 1 2 0.22265625 4.3828125 C-0.16019531 5.28773438 -0.54304688 6.19265625 -0.9375 7.125 C-1.31777344 8.03507813 -1.69804688 8.94515625 -2.08984375 9.8828125 C-2.39019531 10.58148438 -2.69054688 11.28015625 -3 12 C-3.75929472 9.01386614 -4.4118332 6.02485781 -5 3 C-4.34 3 -3.68 3 -3 3 C-3 2.34 -3 1.68 -3 1 C-2.01 0.67 -1.02 0.34 0 0 Z " fill="#191917" transform="translate(1031,193)"/>
<path d="M0 0 C0.33 0.66 0.66 1.32 1 2 C1.66 2 2.32 2 3 2 C2.67 3.98 2.34 5.96 2 8 C1.01 7.67 0.02 7.34 -1 7 C-2.1875 4.4375 -2.1875 4.4375 -3 2 C-2.01 2 -1.02 2 0 2 C0 1.34 0 0.68 0 0 Z " fill="#181A17" transform="translate(381,593)"/>
<path d="M0 0 C0.66 0.99 1.32 1.98 2 3 C1.11644276 6.8555225 0.08943092 9.47228379 -3 12 C-4 10 -4 10 -3.22265625 7.6171875 C-2.83980469 6.71226562 -2.45695313 5.80734375 -2.0625 4.875 C-1.68222656 3.96492187 -1.30195312 3.05484375 -0.91015625 2.1171875 C-0.60980469 1.41851563 -0.30945313 0.71984375 0 0 Z " fill="#DADCD8" transform="translate(877,582)"/>
<path d="M0 0 C1.47625093 3.83825242 0.47572448 6.27185394 -1 10 C-1.63815344 11.34721283 -2.29325371 12.68747118 -3 14 C-3.66 14 -4.32 14 -5 14 C-3.45730076 9.27934033 -1.92205381 4.58335908 0 0 Z " fill="#D3D3D1" transform="translate(419,507)"/>
<path d="M0 0 C1.32 0.33 2.64 0.66 4 1 C5.14889133 4.93905597 5.52582695 8.93565958 6 13 C4.1727089 10.25906335 3.06301822 7.86174676 1.875 4.8125 C1.52179687 3.91144531 1.16859375 3.01039063 0.8046875 2.08203125 C0.53914062 1.39496094 0.27359375 0.70789063 0 0 Z " fill="#E2E2E0" transform="translate(874,296)"/>
<path d="M0 0 C0.66 0 1.32 0 2 0 C1.01 2.97 0.02 5.94 -1 9 C-1.66 9 -2.32 9 -3 9 C-3 6.36 -3 3.72 -3 1 C-2.01 1.495 -2.01 1.495 -1 2 C-0.67 1.34 -0.34 0.68 0 0 Z " fill="#ECECE9" transform="translate(1039,137)"/>
<path d="M0 0 C2.6855594 2.6855594 3.06049974 5.37621328 4 9 C3.01 9 2.02 9 1 9 C0.34 8.01 -0.32 7.02 -1 6 C-0.34 5.01 0.32 4.02 1 3 C0.01 2.67 -0.98 2.34 -2 2 C-1.34 1.34 -0.68 0.68 0 0 Z " fill="#E5E5E3" transform="translate(762,363)"/>
<path d="M0 0 C0.33 0 0.66 0 1 0 C1.75 3.25 1.75 3.25 2 7 C0.0625 9.4375 0.0625 9.4375 -2 11 C-3.13643966 7.59068103 -2.86747764 6.99664544 -1.5625 3.8125 C-1.13130859 2.73935547 -1.13130859 2.73935547 -0.69140625 1.64453125 C-0.46324219 1.10183594 -0.23507812 0.55914062 0 0 Z " fill="#E3E3E1" transform="translate(933,441)"/>
<path d="M0 0 C1.46795245 3.81667636 0.59626457 6.32859149 -1 10 C-1.99 10.66 -2.98 11.32 -4 12 C-3.52309796 10.37433394 -3.04340334 8.74948689 -2.5625 7.125 C-2.29566406 6.22007812 -2.02882813 5.31515625 -1.75390625 4.3828125 C-1 2 -1 2 0 0 Z " fill="#D8D9D5" transform="translate(410,530)"/>
<path d="M0 0 C2 3 2 3 1.625 5.6875 C1.41875 6.450625 1.2125 7.21375 1 8 C0.34 8 -0.32 8 -1 8 C-1 8.66 -1 9.32 -1 10 C-1.66 10 -2.32 10 -3 10 C-2.01 6.7 -1.02 3.4 0 0 Z " fill="#DCDDDA" transform="translate(549,180)"/>
<path d="M0 0 C1.99097846 2.98646769 2.94124926 5.59687262 4 9 C2.68 8.67 1.36 8.34 0 8 C-1.125 2.25 -1.125 2.25 0 0 Z " fill="#DCDCDA" transform="translate(316,457)"/>
<path d="M0 0 C3 3.75 3 3.75 3 6 C2.01 6.33 1.02 6.66 0 7 C-0.66 5.68 -1.32 4.36 -2 3 C-1.34 2.01 -0.68 1.02 0 0 Z " fill="#E3E3E1" transform="translate(789,424)"/>
<path d="M0 0 C1.99097846 2.98646769 2.94124926 5.59687262 4 9 C3.34 8.67 2.68 8.34 2 8 C1.34 8.66 0.68 9.32 0 10 C0 6.7 0 3.4 0 0 Z " fill="#E4E5E1" transform="translate(758,354)"/>
<path d="M0 0 C2.09782787 2.09782787 2.6509396 3.3799207 3.625 6.125 C4.01558594 7.21167969 4.01558594 7.21167969 4.4140625 8.3203125 C4.70410156 9.15175781 4.70410156 9.15175781 5 10 C4.34 10 3.68 10 3 10 C3 9.34 3 8.68 3 8 C2.34 8 1.68 8 1 8 C0.67 5.36 0.34 2.72 0 0 Z " fill="#242522" transform="translate(881,313)"/>
<path d="M0 0 C0.125 2.875 0.125 2.875 0 6 C-0.66 6.66 -1.32 7.32 -2 8 C-2.66 5.69 -3.32 3.38 -4 1 C-2 0 -2 0 0 0 Z " fill="#E9EAE6" transform="translate(390,293)"/>
<path d="M0 0 C0.66 0.33 1.32 0.66 2 1 C1.01 3.97 0.02 6.94 -1 10 C-1.66 9.67 -2.32 9.34 -3 9 C-2.01 6.03 -1.02 3.06 0 0 Z " fill="#1B1B19" transform="translate(568,127)"/>
<path d="M0 0 C2 3 2 3 2 6 C1.34 6 0.68 6 0 6 C0 6.66 0 7.32 0 8 C-0.99 8.33 -1.98 8.66 -3 9 C-2.01 6.03 -1.02 3.06 0 0 Z " fill="#D7D7D5" transform="translate(452,424)"/>
<path d="M0 0 C2 4 2 4 2 6 C0.37373596 7.38232443 -1.2925002 8.71937515 -3 10 C-2.01 6.7 -1.02 3.4 0 0 Z " fill="#DCDDD9" transform="translate(461,401)"/>
<path d="M0 0 C2.475 0.495 2.475 0.495 5 1 C5 2.32 5 3.64 5 5 C4.01 5.33 3.02 5.66 2 6 C1.34 4.02 0.68 2.04 0 0 Z " fill="#E7E7E5" transform="translate(424,383)"/>
<path d="M0 0 C2 3 2 3 1.625 5.6875 C1.41875 6.450625 1.2125 7.21375 1 8 C-1.35953094 5.64046906 -1.49141413 4.22104383 -2 1 C-1.34 0.67 -0.68 0.34 0 0 Z " fill="#EBEBE9" transform="translate(901,351)"/>
<path d="M0 0 C0.66 1.32 1.32 2.64 2 4 C0.02 4.33 -1.96 4.66 -4 5 C-4 3.68 -4 2.36 -4 1 C-2.68 1.33 -1.36 1.66 0 2 C0 1.34 0 0.68 0 0 Z " fill="#E8E9E5" transform="translate(732,296)"/>
<path d="M0 0 C0.66 0.33 1.32 0.66 2 1 C0.515 4.465 0.515 4.465 -1 8 C-1.66 7.67 -2.32 7.34 -3 7 C-2.38722388 4.03824877 -1.74627478 2.61941217 0 0 Z " fill="#DDDEDA" transform="translate(998,241)"/>
<path d="M0 0 C0.66 0.33 1.32 0.66 2 1 C2.625 3.0625 2.625 3.0625 3 5 C1.35 5.66 -0.3 6.32 -2 7 C-1.34 4.69 -0.68 2.38 0 0 Z " fill="#E6E7E4" transform="translate(524,243)"/>
<path d="M0 0 C0.66 0.33 1.32 0.66 2 1 C1.67 3.31 1.34 5.62 1 8 C-0.32 8.33 -1.64 8.66 -3 9 C-2.01 6.03 -1.02 3.06 0 0 Z " fill="#282826" transform="translate(1020,189)"/>
<path d="M0 0 C1.65 0 3.3 0 5 0 C5.33 1.32 5.66 2.64 6 4 C4.35 4 2.7 4 1 4 C0.67 2.68 0.34 1.36 0 0 Z " fill="#DFDFDE" transform="translate(349,540)"/>
<path d="M0 0 C0.99 0.33 1.98 0.66 3 1 C4.125 3.4375 4.125 3.4375 5 6 C5.33 6.66 5.66 7.32 6 8 C5.34 8.66 4.68 9.32 4 10 C2.68 6.7 1.36 3.4 0 0 Z " fill="#161715" transform="translate(823,499)"/>
<path d="M0 0 C1.99097846 2.98646769 2.94124926 5.59687262 4 9 C2.68 8.34 1.36 7.68 0 7 C0 4.69 0 2.38 0 0 Z " fill="#DDDDDB" transform="translate(332,493)"/>
<path d="M0 0 C0.99 1.32 1.98 2.64 3 4 C2.67 4.66 2.34 5.32 2 6 C1.01 6.33 0.02 6.66 -1 7 C-1.33 5.68 -1.66 4.36 -2 3 C-1.34 3 -0.68 3 0 3 C0 2.01 0 1.02 0 0 Z " fill="#ECECEA" transform="translate(794,436)"/>
<path d="M0 0 C1.485 0.99 1.485 0.99 3 2 C2.67 3.65 2.34 5.3 2 7 C1.34 6.67 0.68 6.34 0 6 C-0.6875 3.5 -0.6875 3.5 -1 1 C-0.67 0.67 -0.34 0.34 0 0 Z " fill="#E1E2DF" transform="translate(927,413)"/>
<path d="M0 0 C0.66 0.33 1.32 0.66 2 1 C1.34 2.98 0.68 4.96 0 7 C-0.66 6.67 -1.32 6.34 -2 6 C-2.625 3.9375 -2.625 3.9375 -3 2 C-2.01 2 -1.02 2 0 2 C0 1.34 0 0.68 0 0 Z " fill="#D0D0CE" transform="translate(441,413)"/>
<path d="M0 0 C0.33 0 0.66 0 1 0 C0.67 2.64 0.34 5.28 0 8 C-0.99 8.33 -1.98 8.66 -3 9 C-2.01 6.03 -1.02 3.06 0 0 Z " fill="#CECECB" transform="translate(955,386)"/>
<path d="M0 0 C0.66 1.32 1.32 2.64 2 4 C0.02 6.97 0.02 6.97 -2 10 C-3 8 -3 8 -2.44140625 6.0546875 C-2.15136719 5.33539063 -1.86132812 4.61609375 -1.5625 3.875 C-1.27503906 3.15054688 -0.98757813 2.42609375 -0.69140625 1.6796875 C-0.46324219 1.12539062 -0.23507812 0.57109375 0 0 Z " fill="#232321" transform="translate(523,212)"/>
<path d="M0 0 C2.475 0.495 2.475 0.495 5 1 C5 2.65 5 4.3 5 6 C4.01 6 3.02 6 2 6 C1.34 4.02 0.68 2.04 0 0 Z " fill="#EEEEEC" transform="translate(820,171)"/>
<path d="M0 0 C0.66 0.33 1.32 0.66 2 1 C1.34 3.31 0.68 5.62 0 8 C-0.99 8 -1.98 8 -3 8 C-1.125 1.125 -1.125 1.125 0 0 Z " fill="#E2E2DF" transform="translate(1065,111)"/>
<path d="M0 0 C0.66 0 1.32 0 2 0 C2 0.99 2 1.98 2 3 C2.66 3.33 3.32 3.66 4 4 C3.34 4 2.68 4 2 4 C1.67 5.32 1.34 6.64 1 8 C0.34 5.69 -0.32 3.38 -1 1 C-0.67 0.67 -0.34 0.34 0 0 Z " fill="#1B1B19" transform="translate(164,111)"/>
</svg>
